<?xml version="1.0" encoding="UTF-8"?>
<svg width="600" height="400" viewBox="0 0 600 400" fill="none" xmlns="http://www.w3.org/2000/svg">
  <!-- Background Gradient -->
  <defs>
    <linearGradient id="bg-gradient" x1="0" y1="0" x2="600" y2="400" gradientUnits="userSpaceOnUse">
      <stop offset="0%" style="stop-color:#1a1a1a;stop-opacity:0.8"/>
      <stop offset="100%" style="stop-color:#1a1a1a;stop-opacity:0.95"/>
    </linearGradient>
    
    <linearGradient id="accent-gradient" x1="0" y1="0" x2="600" y2="400" gradientUnits="userSpaceOnUse">
      <stop offset="0%" style="stop-color:#FFD700"/>
      <stop offset="100%" style="stop-color:#BFA46F"/>
    </linearGradient>
  </defs>

  <!-- Main Background -->
  <rect width="600" height="400" fill="url(#bg-gradient)"/>

  <!-- Professional Package Elements -->
  <g transform="translate(300,200)">
    <!-- Central Icon -->
    <path d="M-50,-50 L50,-50 L50,50 L-50,50 Z" 
          fill="none" 
          stroke="url(#accent-gradient)" 
          stroke-width="3"/>
    
    <!-- Diamond Overlay -->
    <path d="M0,-70 L70,0 L0,70 L-70,0 Z" 
          fill="none" 
          stroke="url(#accent-gradient)" 
          stroke-width="3"/>

    <!-- Center Star -->
    <path d="M0,-30 L8.6,-9.2 L30,-9.2 L13.4,3.4 L19.6,24.8 L0,13.4 L-19.6,24.8 L-13.4,3.4 L-30,-9.2 L-8.6,-9.2 Z" 
          fill="url(#accent-gradient)"/>

    <!-- Decorative Lines -->
    <g transform="rotate(0)">
      <path d="M-90,0 L90,0" stroke="url(#accent-gradient)" stroke-width="1" opacity="0.3"/>
    </g>
    <g transform="rotate(45)">
      <path d="M-90,0 L90,0" stroke="url(#accent-gradient)" stroke-width="1" opacity="0.3"/>
    </g>
    <g transform="rotate(90)">
      <path d="M-90,0 L90,0" stroke="url(#accent-gradient)" stroke-width="1" opacity="0.3"/>
    </g>
    <g transform="rotate(135)">
      <path d="M-90,0 L90,0" stroke="url(#accent-gradient)" stroke-width="1" opacity="0.3"/>
    </g>
  </g>

  <!-- Abstract Background Elements -->
  <g opacity="0.2">
    <!-- Grid Pattern -->
    <path d="M0,100 H600 M0,200 H600 M0,300 H600" 
          stroke="url(#accent-gradient)" 
          stroke-width="0.5"/>
    <path d="M150,0 V400 M300,0 V400 M450,0 V400" 
          stroke="url(#accent-gradient)" 
          stroke-width="0.5"/>
  </g>

  <!-- Corner Decorations -->
  <g opacity="0.4">
    <!-- Top Left -->
    <path d="M50,50 L100,50 L100,100" 
          stroke="url(#accent-gradient)" 
          stroke-width="2" 
          fill="none"/>
    
    <!-- Top Right -->
    <path d="M500,50 L550,50 L550,100" 
          stroke="url(#accent-gradient)" 
          stroke-width="2" 
          fill="none"/>
    
    <!-- Bottom Left -->
    <path d="M50,300 L100,300 L100,350" 
          stroke="url(#accent-gradient)" 
          stroke-width="2" 
          fill="none"/>
    
    <!-- Bottom Right -->
    <path d="M500,300 L550,300 L550,350" 
          stroke="url(#accent-gradient)" 
          stroke-width="2" 
          fill="none"/>
  </g>

  <!-- Floating Elements -->
  <g opacity="0.6">
    <circle cx="150" cy="100" r="10" fill="url(#accent-gradient)"/>
    <circle cx="450" cy="300" r="10" fill="url(#accent-gradient)"/>
    <circle cx="300" cy="50" r="5" fill="url(#accent-gradient)"/>
    <circle cx="300" cy="350" r="5" fill="url(#accent-gradient)"/>
  </g>
</svg> 