<?xml version="1.0" encoding="UTF-8"?>
<svg width="600" height="400" viewBox="0 0 600 400" fill="none" xmlns="http://www.w3.org/2000/svg">
  <!-- Background Gradient -->
  <defs>
    <linearGradient id="bg-gradient" x1="0" y1="0" x2="600" y2="400" gradientUnits="userSpaceOnUse">
      <stop offset="0%" style="stop-color:#1a1a1a;stop-opacity:0.8"/>
      <stop offset="100%" style="stop-color:#1a1a1a;stop-opacity:0.95"/>
    </linearGradient>
    
    <linearGradient id="accent-gradient" x1="0" y1="0" x2="600" y2="400" gradientUnits="userSpaceOnUse">
      <stop offset="0%" style="stop-color:#FFD700"/>
      <stop offset="100%" style="stop-color:#BFA46F"/>
    </linearGradient>
  </defs>

  <!-- Main Background -->
  <rect width="600" height="400" fill="url(#bg-gradient)"/>

  <!-- Starter Package Elements -->
  <g transform="translate(300,200)">
    <!-- Central Icon -->
    <circle cx="0" cy="0" r="60" fill="none" stroke="url(#accent-gradient)" stroke-width="3"/>
    <path d="M-30,-30 L30,30 M-30,30 L30,-30" 
          stroke="url(#accent-gradient)" 
          stroke-width="3" 
          stroke-linecap="round"/>

    <!-- Surrounding Elements -->
    <g transform="rotate(45)">
      <rect x="-80" y="-5" width="160" height="10" fill="url(#accent-gradient)" opacity="0.3"/>
      <rect x="-5" y="-80" width="10" height="160" fill="url(#accent-gradient)" opacity="0.3"/>
    </g>

    <!-- Decorative Circles -->
    <circle cx="0" cy="0" r="90" fill="none" stroke="url(#accent-gradient)" stroke-width="1" opacity="0.5"/>
    <circle cx="0" cy="0" r="120" fill="none" stroke="url(#accent-gradient)" stroke-width="1" opacity="0.3"/>
  </g>

  <!-- Abstract Background Elements -->
  <g opacity="0.2">
    <!-- Grid Pattern -->
    <path d="M0,100 H600 M0,200 H600 M0,300 H600" 
          stroke="url(#accent-gradient)" 
          stroke-width="0.5"/>
    <path d="M150,0 V400 M300,0 V400 M450,0 V400" 
          stroke="url(#accent-gradient)" 
          stroke-width="0.5"/>
  </g>

  <!-- Corner Decorations -->
  <g opacity="0.4">
    <path d="M50,50 L80,50 L80,80" 
          stroke="url(#accent-gradient)" 
          stroke-width="2" 
          fill="none"/>
    <path d="M520,50 L550,50 L550,80" 
          stroke="url(#accent-gradient)" 
          stroke-width="2" 
          fill="none"/>
    <path d="M50,320 L80,320 L80,350" 
          stroke="url(#accent-gradient)" 
          stroke-width="2" 
          fill="none"/>
    <path d="M520,320 L550,320 L550,350" 
          stroke="url(#accent-gradient)" 
          stroke-width="2" 
          fill="none"/>
  </g>
</svg> 