<?xml version="1.0" encoding="UTF-8"?>
<svg width="200" height="200" viewBox="0 0 200 200" fill="none" xmlns="http://www.w3.org/2000/svg">
  <!-- Background Gradient -->
  <defs>
    <linearGradient id="bg-gradient" x1="0" y1="0" x2="200" y2="200" gradientUnits="userSpaceOnUse">
      <stop offset="0%" style="stop-color:#1a1a1a;stop-opacity:0.8"/>
      <stop offset="100%" style="stop-color:#1a1a1a;stop-opacity:0.95"/>
    </linearGradient>
    
    <linearGradient id="accent-gradient" x1="0" y1="0" x2="200" y2="200" gradientUnits="userSpaceOnUse">
      <stop offset="0%" style="stop-color:#FFD700"/>
      <stop offset="100%" style="stop-color:#BFA46F"/>
    </linearGradient>
  </defs>

  <!-- Main Background -->
  <circle cx="100" cy="100" r="100" fill="url(#bg-gradient)"/>

  <!-- Avatar Elements -->
  <g transform="translate(100,100)">
    <!-- Head -->
    <circle cx="0" cy="-10" r="35" fill="url(#accent-gradient)" opacity="0.8"/>
    
    <!-- Glasses -->
    <path d="M-25,-20 H-15 M15,-20 H25" 
          stroke="url(#accent-gradient)" 
          stroke-width="3"/>
    <circle cx="-20" cy="-15" r="10" 
            stroke="url(#accent-gradient)" 
            stroke-width="3" 
            fill="none"/>
    <circle cx="20" cy="-15" r="10" 
            stroke="url(#accent-gradient)" 
            stroke-width="3" 
            fill="none"/>
    
    <!-- Body -->
    <path d="M-30,20 Q0,40 30,20 L30,60 Q0,80 -30,60 Z" 
          fill="url(#accent-gradient)" 
          opacity="0.6"/>

    <!-- Decorative Elements -->
    <circle cx="-15" cy="-15" r="3" fill="#1a1a1a"/>
    <circle cx="15" cy="-15" r="3" fill="#1a1a1a"/>
    <path d="M-10,0 Q0,10 10,0" 
          stroke="#1a1a1a" 
          stroke-width="3" 
          fill="none"/>
  </g>

  <!-- Border -->
  <circle cx="100" cy="100" r="98" 
          stroke="url(#accent-gradient)" 
          stroke-width="4" 
          fill="none"/>

  <!-- Decorative Elements -->
  <g opacity="0.3">
    <!-- Top Left -->
    <path d="M30,30 L50,30 L50,50" 
          stroke="url(#accent-gradient)" 
          stroke-width="2" 
          fill="none"/>
    
    <!-- Top Right -->
    <path d="M150,30 L170,30 L170,50" 
          stroke="url(#accent-gradient)" 
          stroke-width="2" 
          fill="none"/>
    
    <!-- Bottom Left -->
    <path d="M30,150 L50,150 L50,170" 
          stroke="url(#accent-gradient)" 
          stroke-width="2" 
          fill="none"/>
    
    <!-- Bottom Right -->
    <path d="M150,150 L170,150 L170,170" 
          stroke="url(#accent-gradient)" 
          stroke-width="2" 
          fill="none"/>
  </g>
</svg> 